#!OML:ASF X:\für Bonn\!DataBase\2005_08_12_Daniel\c3d\Daniel.ASF
:FULLY-SPECIFIED
:DEGREES
331
root 2.4863 17.3584 -14.1533 351.505 13.416 -1.65784
lowerback 39.2491 -1.79232 1.26314
upperback 10.6168 -1.95313 -3.92939
thorax -7.49458 -0.734073 -4.08469
lowerneck -4.48655 -0.626906 -0.725031
upperneck 13.7692 -0.697529 -0.387766
head 4.86886 -0.391558 -0.0378282
rclavicle -1.43125e-014 -4.69132e-014
rhumerus 162.997 -182.267 -262.357
rradius 19.3302
rwrist 21.1793
rhand -9.8905 9.89856
rfingers 7.12502
rthumb 16.0891 -19.4535
lclavicle -1.43125e-014 -4.69132e-014
lhumerus -15.0608 21.7165 80.2684
lradius 23.4098
lwrist -17.5924
lhand -14.1865 -6.91396
lfingers 7.12502
lthumb 11.9493 22.725
rfemur -21.645 -3.76416 15.4938
rtibia 59.5385
rfoot -7.15177 -3.75254
rtoes -12.6742
lfemur -8.93693 -10.0588 -22.6477
ltibia 41.9798
lfoot -25.0145 -9.09517
ltoes -4.42376
332
root 2.51035 17.3615 -14.0773 351.35 13.2846 -1.66015
lowerback 38.5617 -1.85941 1.05622
upperback 10.5019 -2.12935 -3.92998
thorax -7.40612 -0.827456 -3.91319
lowerneck -4.53478 -0.427939 -0.577185
upperneck 14.0434 -0.421288 -0.54657
head 4.96026 -0.260401 -0.0967034
rclavicle 3.97569e-015 -1.19271e-014
rhumerus 162.512 -181.868 -262.737
rradius 19.3002
rwrist 21.1426
rhand -10.1676 10.033
rfingers 7.12502
rthumb 15.8223 -19.3404
lclavicle 3.97569e-015 -1.19271e-014
lhumerus -14.856 21.9102 80.1102
lradius 23.1668
lwrist -17.8039
lhand -14.2721 -6.84556
lfingers 7.12502
lthumb 11.8668 22.7982
rfemur -21.769 -4.20606 15.692
rtibia 59.5829
rfoot -6.49384 -2.04387
rtoes -12.4054
lfemur -8.24323 -9.96598 -22.7391
ltibia 41.6731
lfoot -25.2696 -9.04684
ltoes -4.51965
333
root 2.53362 17.3659 -14.0012 351.197 13.1577 -1.6636
lowerback 37.9226 -1.93394 0.840584
upperback 10.3771 -2.31375 -3.91383
thorax -7.33768 -0.925064 -3.71717
lowerneck -4.58146 -0.218605 -0.47112
upperneck 14.3146 -0.127985 -0.693923
head 5.05159 -0.122663 -0.143876
rclavicle 3.97569e-015 2.06736e-014
rhumerus 162.061 -181.358 -263.085
rradius 19.2418
rwrist 21.1928
rhand -10.4802 10.2044
rfingers 7.12502
rthumb 15.5212 -19.1927
lclavicle 3.97569e-015 2.06736e-014
lhumerus -14.6861 22.0032 79.996
lradius 22.9489
lwrist -17.9621
lhand -14.4317 -6.81093
lfingers 7.12502
lthumb 11.7128 22.8416
rfemur -21.8673 -4.62158 15.8937
rtibia 59.5166
rfoot -5.90965 -0.391918
rtoes -11.8541
lfemur -7.53196 -9.90571 -22.8392
ltibia 41.3336
lfoot -25.5022 -8.94481
ltoes -4.60663
334
root 2.55686 17.3699 -13.9238 351.061 13.0162 -1.66242
lowerback 37.2713 -2.01474 0.625815
upperback 10.2618 -2.50292 -3.89868
thorax -7.24926 -1.02473 -3.5228
lowerneck -4.64046 -0.01765 -0.402857
upperneck 14.5622 0.157388 -0.834785
head 5.13865 0.00932864 -0.182886
rclavicle -2.38542e-015 -2.06736e-014
rhumerus 161.673 -180.706 -263.439
rradius 19.1296
rwrist 21.3251
rhand -10.8611 10.4278
rfingers 7.12502
rthumb 15.1543 -18.9974
lclavicle -2.38542e-015 -2.06736e-014
lhumerus -14.5337 21.8986 79.9004
lradius 22.7959
lwrist -17.9359
lhand -14.5559 -6.69228
lfingers 7.12502
lthumb 11.5931 22.9671
rfemur -21.9617 -5.01743 16.103
rtibia 59.3682
rfoot -5.44253 1.04685
rtoes -11.9651
lfemur -6.81959 -9.89496 -22.9583
ltibia 40.9788
lfoot -25.7194 -8.79299
ltoes -4.67434
335
root 2.5787 17.3756 -13.8459 350.913 12.8856 -1.68516
lowerback 36.677 -2.0981 0.452407
upperback 10.1513 -2.67664 -3.87496
thorax -7.16966 -1.11646 -3.34796
lowerneck -4.81702 0.173428 -0.323754
upperneck 14.8481 0.430186 -0.974405
head 5.2584 0.134982 -0.223579
rclavicle 7.95139e-015 -2.06736e-014
rhumerus 161.312 -179.668 -263.721
rradius 19.0024
rwrist 21.6629
rhand -11.2001 10.7451
rfingers 7.12502
rthumb 14.8278 -18.7044
lclavicle 7.95139e-015 -2.06736e-014
lhumerus -14.3725 21.542 79.8636
lradius 22.6902
lwrist -17.7392
lhand -14.6647 -6.55358
lfingers 7.12502
lthumb 11.4881 23.1116
rfemur -21.9959 -5.36406 16.3454
rtibia 59.112
rfoot -5.09628 2.26055
rtoes -12.0975
lfemur -6.07765 -9.95744 -23.0653
ltibia 40.5931
lfoot -25.9319 -8.56599
ltoes -4.7746
336
root 2.59952 17.3786 -13.7674 350.796 12.7655 -1.66721
lowerback 36.0937 -2.18254 0.242498
upperback 10.029 -2.86294 -3.84939
thorax -7.10101 -1.21436 -3.14864
lowerneck -4.8679 0.357564 -0.293854
upperneck 15.0818 0.693081 -1.07996
head 5.34101 0.255588 -0.24575
rclavicle -3.97569e-014 -2.22639e-014
rhumerus 160.934 -178.712 -264.004
rradius 18.8953
rwrist 21.839
rhand -11.5464 11.0282
rfingers 7.12502
rthumb 14.4941 -18.4455
lclavicle -3.97569e-014 -2.22639e-014
lhumerus -14.2702 21.0277 79.8526
lradius 22.6647
lwrist -17.4939
lhand -14.7617 -6.40606
lfingers 7.12502
lthumb 11.3946 23.2643
rfemur -22.0497 -5.67902 16.5515
rtibia 58.7862
rfoot -4.86211 3.27242
rtoes -12.6321
lfemur -5.34436 -10.0361 -23.2247
ltibia 40.178
lfoot -26.1301 -8.316
ltoes -4.83545
337
root 2.62085 17.385 -13.6884 350.66 12.6545 -1.69034
lowerback 35.4483 -2.29314 0.101144
upperback 10.0042 -3.05387 -3.8267
thorax -7.0316 -1.31506 -2.96993
lowerneck -4.68354 0.537267 -0.254647
upperneck 15.1032 0.949011 -1.21356
head 5.3181 0.373315 -0.279097
rclavicle -3.97569e-015 -1.43125e-014
rhumerus 160.594 -177.558 -264.239
rradius 18.7458
rwrist 22.1309
rhand -11.7847 11.3262
rfingers 7.12502
rthumb 14.2645 -18.1638
lclavicle -3.97569e-015 -1.43125e-014
lhumerus -14.1802 20.3406 79.8652
lradius 22.6889
lwrist -17.058
lhand -14.7556 -6.22027
lfingers 7.12502
lthumb 11.4004 23.4498
rfemur -22.0422 -5.95423 16.8029
rtibia 58.3413
rfoot -4.70215 4.01644
rtoes -13.479
lfemur -4.58639 -10.1416 -23.3447
ltibia 39.7297
lfoot -26.2846 -8.07714
ltoes -4.8294
338
root 2.64116 17.3944 -13.6075 350.562 12.5314 -1.6888
lowerback 34.8651 -2.38856 -0.0777758
upperback 9.8868 -3.23707 -3.78079
thorax -6.949 -1.41163 -2.76935
lowerneck -4.4857 0.717525 -0.282512
upperneck 15.1035 1.20578 -1.30489
head 5.28621 0.490858 -0.288552
rclavicle -1.59028e-015 1.59028e-015
rhumerus 160.233 -176.432 -264.429
rradius 18.5811
rwrist 22.4157
rhand -12.024 11.6466
rfingers 7.12502
rthumb 14.0339 -17.8596
lclavicle -1.59028e-015 1.59028e-015
lhumerus -14.1309 19.5639 79.9018
lradius 22.7705
lwrist -16.6497
lhand -14.6556 -6.14092
lfingers 7.12502
lthumb 11.4969 23.5238
rfemur -22.0436 -6.16791 17.0317
rtibia 57.7937
rfoot -4.6461 4.55548
rtoes -14.337
lfemur -3.83918 -10.2616 -23.4916
ltibia 39.2607
lfoot -26.4278 -7.78717
ltoes -4.77232
339
root 2.66112 17.4013 -13.5271 350.472 12.4299 -1.69452
lowerback 34.2878 -2.51134 -0.236168
upperback 9.76672 -3.44645 -3.73907
thorax -6.86924 -1.5204 -2.57633
lowerneck -4.31883 0.897283 -0.324021
upperneck 15.1456 1.46438 -1.39957
head 5.27274 0.608001 -0.296867
rclavicle 2.8625e-014 -4.77083e-015
rhumerus 159.845 -175.24 -264.574
rradius 18.4148
rwrist 22.7161
rhand -12.1398 11.9872
rfingers 7.12502
rthumb 13.9223 -17.5267
lclavicle 2.8625e-014 -4.77083e-015
lhumerus -14.1432 18.6672 79.9304
lradius 22.9257
lwrist -16.102
lhand -14.597 -6.05048
lfingers 7.12502
lthumb 11.5534 23.6111
rfemur -22.0079 -6.33959 17.2656
rtibia 57.1126
rfoot -4.65777 4.95177
rtoes -15.0249
lfemur -3.10065 -10.4255 -23.6409
ltibia 38.7862
lfoot -26.5793 -7.49621
ltoes -4.78537
340
root 2.68079 17.4057 -13.4453 350.381 12.3109 -1.70861
lowerback 33.6901 -2.63265 -0.404716
upperback 9.68024 -3.65298 -3.68611
thorax -6.73869 -1.62815 -2.37074
lowerneck -4.18859 1.07711 -0.374444
upperneck 15.1375 1.72326 -1.49628
head 5.25012 0.724914 -0.304496
rclavicle -1.90833e-014 -1.90833e-014
rhumerus 159.524 -174.207 -264.716
rradius 18.1939
rwrist 22.877
rhand -12.2105 12.2126
rfingers 7.12502
rthumb 13.8541 -17.306
lclavicle -1.90833e-014 -1.90833e-014
lhumerus -14.17 17.7165 79.9624
lradius 23.1416
lwrist -15.5812
lhand -14.4449 -6.00793
lfingers 7.12502
lthumb 11.7001 23.6454
rfemur -21.9266 -6.45424 17.5047
rtibia 56.2923
rfoot -4.7113 5.23057
rtoes -15.3394
lfemur -2.35985 -10.596 -23.7978
ltibia 38.3026
lfoot -26.6956 -7.14793
ltoes -4.71191
341
root 2.69957 17.4096 -13.3639 350.3 12.2022 -1.72975
lowerback 33.1175 -2.76531 -0.556325
upperback 9.57084 -3.86765 -3.62667
thorax -6.63821 -1.73984 -2.16575
lowerneck -3.99129 1.25925 -0.496389
upperneck 15.1013 1.98197 -1.53471
head 5.20629 0.842293 -0.283044
rclavicle 7.95139e-016 -3.33958e-014
rhumerus 159.166 -172.981 -264.785
rradius 17.9268
rwrist 23.1446
rhand -12.198 12.4896
rfingers 7.12502
rthumb 13.8662 -17.0282
lclavicle 7.95139e-016 -3.33958e-014
lhumerus -14.2526 16.8305 79.9649
lradius 23.3437
lwrist -15.1605
lhand -14.3396 -6.12237
lfingers 7.12502
lthumb 11.8017 23.5251
rfemur -21.8344 -6.52372 17.7482
rtibia 55.3428
rfoot -4.77273 5.35519
rtoes -15.4344
lfemur -1.61252 -10.7862 -23.9425
ltibia 37.7852
lfoot -26.8067 -6.82042
ltoes -4.63337
342
root 2.71804 17.4164 -13.2813 350.228 12.0929 -1.71329
lowerback 32.2423 -2.90376 -0.71807
upperback 9.84053 -4.09043 -3.52234
thorax -6.60888 -1.87289 -2.05597
lowerneck -3.79518 1.43662 -0.605022
upperneck 15.0655 2.23446 -1.58876
head 5.1629 0.956546 -0.269458
rclavicle 3.02153e-014 7.95139e-015
rhumerus 158.714 -171.884 -264.856
rradius 17.7893
rwrist 23.2536
rhand -12.1053 12.6184
rfingers 7.12502
rthumb 13.9555 -16.8932
lclavicle 3.02153e-014 7.95139e-015
lhumerus -14.4348 15.6871 79.9428
lradius 23.6768
lwrist -14.4548
lhand -14.1882 -6.22863
lfingers 7.12502
lthumb 11.9476 23.4104
rfemur -21.731 -6.51647 17.9384
rtibia 54.2948
rfoot -4.86489 5.30775
rtoes -15.4024
lfemur -0.830317 -10.9994 -24.1419
ltibia 37.2161
lfoot -26.8844 -6.45128
ltoes -4.42389
